<svg xmlns="http://www.w3.org/2000/svg" viewBox="0 0 64 64" fill="none">
  <defs>
    <linearGradient id="bg" x1="12" y1="8" x2="52" y2="56" gradientUnits="userSpaceOnUse">
      <stop stop-color="#c74356" />
      <stop offset="1" stop-color="#7d2430" />
    </linearGradient>
    <linearGradient id="muscle" x1="22" y1="18" x2="42" y2="46" gradientUnits="userSpaceOnUse">
      <stop stop-color="#fff4f6" />
      <stop offset="1" stop-color="#f0c8cf" />
    </linearGradient>
  </defs>
  <rect x="6" y="6" width="52" height="52" rx="16" fill="url(#bg)" />
  <path d="M24 19c2.7 0 4.8 1.8 6.1 4.1 1.3-2.3 3.4-4.1 6.1-4.1 4.4 0 7.8 3.9 7.8 8.9 0 8.8-7.1 14.1-13.9 19.1-6.8-5-13.9-10.3-13.9-19.1 0-5 3.4-8.9 7.8-8.9Z" fill="url(#muscle)" />
  <path d="M24 19c2.7 0 4.8 1.8 6.1 4.1 1.3-2.3 3.4-4.1 6.1-4.1 4.4 0 7.8 3.9 7.8 8.9 0 8.8-7.1 14.1-13.9 19.1-6.8-5-13.9-10.3-13.9-19.1 0-5 3.4-8.9 7.8-8.9Z" stroke="rgba(255,255,255,.35)" stroke-width="1.5" />
  <path d="M23 31c2.7-1.9 5.9-2.9 9-2.9 3.1 0 6.3 1 9 2.9" stroke="#7d2430" stroke-linecap="round" stroke-width="2.4" />
  <path d="M24.5 38c2.1-1.2 4.8-1.8 7.5-1.8s5.4.6 7.5 1.8" stroke="#7d2430" stroke-linecap="round" stroke-width="2.4" />
</svg>
